<?xml version="1.0" encoding="utf-8"?>
<!-- Generator: Adobe Illustrator 19.2.0, SVG Export Plug-In . SVG Version: 6.00 Build 0)  -->
<svg version="1.1" id="Layer_1" xmlns="http://www.w3.org/2000/svg" xmlns:xlink="http://www.w3.org/1999/xlink" x="0px" y="0px"
	 viewBox="0 0 1080 281" enable-background="new 0 0 1080 281" xml:space="preserve">
<metadata><?xpacket begin="﻿" id="W5M0MpCehiHzreSzNTczkc9d"?>
<x:xmpmeta xmlns:x="adobe:ns:meta/" x:xmptk="Adobe XMP Core 5.6-c111 79.158366, 2015/09/25-01:12:00        ">
   <rdf:RDF xmlns:rdf="http://www.w3.org/1999/02/22-rdf-syntax-ns#">
      <rdf:Description rdf:about=""
            xmlns:dc="http://purl.org/dc/elements/1.1/"
            xmlns:xmp="http://ns.adobe.com/xap/1.0/"
            xmlns:xmpGImg="http://ns.adobe.com/xap/1.0/g/img/"
            xmlns:xmpMM="http://ns.adobe.com/xap/1.0/mm/"
            xmlns:stRef="http://ns.adobe.com/xap/1.0/sType/ResourceRef#"
            xmlns:stEvt="http://ns.adobe.com/xap/1.0/sType/ResourceEvent#"
            xmlns:illustrator="http://ns.adobe.com/illustrator/1.0/"
            xmlns:xmpTPg="http://ns.adobe.com/xap/1.0/t/pg/"
            xmlns:stDim="http://ns.adobe.com/xap/1.0/sType/Dimensions#"
            xmlns:xmpG="http://ns.adobe.com/xap/1.0/g/"
            xmlns:pdf="http://ns.adobe.com/pdf/1.3/">
         <dc:format>image/svg+xml</dc:format>
         <dc:title>
            <rdf:Alt>
               <rdf:li xml:lang="x-default">Print</rdf:li>
            </rdf:Alt>
         </dc:title>
         <xmp:MetadataDate>2016-01-08T13:12:35-06:00</xmp:MetadataDate>
         <xmp:ModifyDate>2016-01-08T13:12:35-06:00</xmp:ModifyDate>
         <xmp:CreateDate>2016-01-08T13:12:35-06:00</xmp:CreateDate>
         <xmp:CreatorTool>Adobe Illustrator CC 2015 (Macintosh)</xmp:CreatorTool>
         <xmp:Thumbnails>
            <rdf:Alt>
               <rdf:li rdf:parseType="Resource">
                  <xmpGImg:width>256</xmpGImg:width>
                  <xmpGImg:height>68</xmpGImg:height>
                  <xmpGImg:format>JPEG</xmpGImg:format>
                  <xmpGImg:image>/9j/4AAQSkZJRgABAgEASABIAAD/7QAsUGhvdG9zaG9wIDMuMAA4QklNA+0AAAAAABAASAAAAAEA&#xA;AQBIAAAAAQAB/+4ADkFkb2JlAGTAAAAAAf/bAIQABgQEBAUEBgUFBgkGBQYJCwgGBggLDAoKCwoK&#xA;DBAMDAwMDAwQDA4PEA8ODBMTFBQTExwbGxscHx8fHx8fHx8fHwEHBwcNDA0YEBAYGhURFRofHx8f&#xA;Hx8fHx8fHx8fHx8fHx8fHx8fHx8fHx8fHx8fHx8fHx8fHx8fHx8fHx8fHx8f/8AAEQgARAEAAwER&#xA;AAIRAQMRAf/EAaIAAAAHAQEBAQEAAAAAAAAAAAQFAwIGAQAHCAkKCwEAAgIDAQEBAQEAAAAAAAAA&#xA;AQACAwQFBgcICQoLEAACAQMDAgQCBgcDBAIGAnMBAgMRBAAFIRIxQVEGE2EicYEUMpGhBxWxQiPB&#xA;UtHhMxZi8CRygvElQzRTkqKyY3PCNUQnk6OzNhdUZHTD0uIIJoMJChgZhJRFRqS0VtNVKBry4/PE&#xA;1OT0ZXWFlaW1xdXl9WZ2hpamtsbW5vY3R1dnd4eXp7fH1+f3OEhYaHiImKi4yNjo+Ck5SVlpeYmZ&#xA;qbnJ2en5KjpKWmp6ipqqusra6voRAAICAQIDBQUEBQYECAMDbQEAAhEDBCESMUEFURNhIgZxgZEy&#xA;obHwFMHR4SNCFVJicvEzJDRDghaSUyWiY7LCB3PSNeJEgxdUkwgJChgZJjZFGidkdFU38qOzwygp&#xA;0+PzhJSktMTU5PRldYWVpbXF1eX1RlZmdoaWprbG1ub2R1dnd4eXp7fH1+f3OEhYaHiImKi4yNjo&#xA;+DlJWWl5iZmpucnZ6fkqOkpaanqKmqq6ytrq+v/aAAwDAQACEQMRAD8AgWad9WdirsVdirsVdirs&#xA;VdirsVdirsVdirsVdirsVdirsVdirsVdirsVdirsVdirsVdirsVdirsVdirsVdirsVdirsVdirsV&#xA;dirsVdirsVdirsVdiqIsbC+v7lLWxt5Lq5kNEhhRnc/JVBOLCeSMBcjQZPbfl3LFRtf1nT9CX9qG&#xA;eYTXIH/MPBzYfJiMlw95pwJdog/3cJZPcKHzKYRaR+TFoaXmvapqZH7VnarbqfonDNTJVAdSWk5t&#xA;dL6YQj7zf3K6Xv5CqvE6fr7kftFrep+6UYf3f9L7GJh2h/Oxfb+pY4/Im6BCNr1g1diwt3UfQDIa&#xA;fTj+7/pfYkfyhH/U5fP9iDl8meR70V0PzjbiU9LfVIJbOn/Pajx5HhHQtg1uoj/eYj74kS+zmkes&#xA;eTvMOkw/Wbm29WxrRb+2dLi2Ph++iLoPkTXIkEOXh1uPIaB9Xcdj8ikmBynYq7FXYq7FXYq7FXYq&#xA;7FXYq7FXYq7FXYq7FXYq7FXYq7FXYq7FXYq7FXYqzvyB+WH+LtH1LUP0pHp36PkRWMyVj4Ecndn5&#xA;DjxUeGWY8fFe/J1PaHan5ecY8PFxIrRPIl9f6rq2k6H5kQ+WLBEm1PWwGggIZK0ZA3x8eLdW47E1&#xA;GIx2TR272vPr4whGeTH+9ltGPM/j4IPzl+WDaHokGv6Xq0Gu6HMwja7gXgUdunJQ0gpXb7Wx2Ixn&#xA;joWDYbdH2p4uQ45xOPIOh/AZJ5Q/KS0sNV8v3fmLXbXT9SuJoLu20J0EkkqI4cRuWdApenH7J323&#xA;O2WQxCxxH4ODrO1zOE44oGUQCDLu8+SYaTaWp/5yNu4TDGYQ0pEfEcQfqla0pTrjEDxa82nNM/yY&#xA;De+3+6SHzN+Utq0Os6l5c1621iXTXkl1DTokEckKAlmC0eQNxFfDoab7ZGWIVsbpy9L2sbhHLAwE&#xA;qo9/2BLPLH5Xxaj5fj8wa7rdv5f0q5kMVlJMnqPKwYqSF5xgCoPfsT03wQx2LJoORqu1DDJ4eOBy&#xA;THOun3tXPknVPK/nSw0i41safZ6mFNvrlsWMTwyVCkqrJty2YFqb16ZEwqVE/FY66GfBKYhxGPOJ&#xA;70Vrf5Paro1hruq67fx2dtp7cbBwgf69K4qgRQy+mDUDvTfbY5I4TEG+jXg7YhklCGOJJlz/AKP6&#xA;3nWVO6dirsVdirsVdirsVdirsVdirsVdir3DzL/zjdKvKby3qQcbkWl7sfkJUFD9KD55lT0p6F5X&#xA;Te0g5ZY/EfqeW+YPInm7y+W/SulzwRL/AMfAX1If+Rqck/HMeUDHmHf6fX4c30SB8uvySHIuW7FX&#xA;Yq7FXYq7FXYq7FXYq9N8lOq/k552HIA+pbbV33dR+OWx+iXw+90WtH+G4fim/wCQmqWZ0zzDoZjt&#xA;7jUrpUnsbK7IEVwUVhwaoatG4kimTwEbjvcbt/FLjx5NxEbEjmHfm9f+e7fyzaWmu3OmWNveSLTQ&#xA;bFT6qrHVlcs3L4VZd+JArTHKZ0AaHkvY+PTnKTjE5GI+uXJkOu+VNR83efPLPnbQJIbzQ1NnJcP6&#xA;iq8Qt5/UdSpNSaHoN67HLDEymJDk4eDVx0+nyYMlifq+Nikr0h0/6GSvPiG7TAb9xZ9MhH+++Jcj&#xA;MP8AWsfD/dKug+U9S8jnzf5g8xyQ2lld21xb2SiRXeZ5nLJxA7mgAB339jgjjMATLuphqNXHVeFj&#xA;xWZAgnypLT5dvfPv5XeXLby9LFNf6G0kN9ZPIEdfUNA2+3RajxB8Rg4DOArmLb/zEdJq8hyAiM+R&#xA;RHm7y3F5k8xeU/JVveRyS6Dpqprl3GwKRJEsaybn9r4On+UK98M48REe4MdJqThxZc5H95P0jv5o&#xA;/wAy3ug/mRoeoeXdBkZL/wAssJdKDuWW8hhj9NiK09wCfY/tGkpETFD+Hl5tOmhk0WSOXJ9OX6v6&#xA;JLyDWvKd3pOk6fqU08UseoIrrHHyJTmgkAJI4k8SK0O3yIJxSHo8GrjknKIB9KR4uW7FXYq7FXYq&#xA;7FXYq7FXYqyXy7+XHnTzAUbTtLlNu/S6mHow08Q78Q3+xrkowlLkHB1HaWDD9UhfcNy9U8s/843W&#xA;0fCbzJqJmbq1nZjinyMrjkfoUfPMmGl7y6DU+0hO2KNeZ/U9tzNeWcQCCCKg7EHFWJa9+VHkLWyz&#xA;3WlRw3Dbm4tawPXxPp0Vj/rA5TLBA9HY6ftXUYuUiR3Hd55rf/ONURLPoesFB+zBepy/5Kx0/wCI&#xA;ZRLSHoXc4PaU/wCUh8v1H9bA9Y/JT8xdN5N+jfrsS/7ts3WWvyT4Zf8AhMplhmOjtsPbemn/ABcP&#xA;v2/Yw6+03UbCX0b61mtJR1jnjaNvuYA5UXZwyxmLiQfchsWbsVdirsVdirsVbVmVgykhgagjYgjF&#xA;SG5JJJG5SMXY9WYkn7zigADkuiuLiIERSvGD1CsR+rBSDEHmFgZgwYEhgag964WVL5Z55aerI0nH&#xA;pyYtSvzwUgRA5BqOWWJuUTsjEUJUkGn0YVMQea0mu5xS1iq5pJGVVZiVT7IJqBXwxQAFuKXYq7FX&#xA;Yq7FUZp2javqcnp6bY3F69acbeJ5TX/YA4gXyasmaEN5SEfeWaaN+Rn5h6lxaSzj0+Jv92XcgU0/&#xA;1E9ST71y2OCZ6Oszdu6aHI8XuZ5of/ONenx8X1vVpJz1aC0QRL8vUfmSP9iMvjpO8uoz+0sj/dxr&#xA;37vRNB/LXyPoXFrDSYPXWhFxMPXlqO4eXkV/2NMvjggOjptR2lny/VI13DYfYybLXBdirsVdirsV&#xA;dirsVU7i2t7mIw3ESTRN9qORQyn5g1GAgHmyjIxNg0xjU/yr/L3UixuNDtkZurW4Nua+P7kx5UcE&#xA;D0c7F2rqYcpn47/exbUf+cdPJU4Js7m9s37AOkiD6HTl/wANlZ0o6F2GP2jzj6hGTGr/AP5xnvFq&#xA;dP12OTwS4gaP/hkeT9WVnSHoXNx+0w/ih8ikF7/zjz5+gJ9BrO7Xt6UzKT9EqR75A6aYcyHtDpzz&#xA;4h8P1JLd/k5+ZNqTz0SRwOhikhlrvT9h2OQOGY6OVDtnSy/j+8foSm58g+d7YEzaBqCqOri2lZRv&#xA;T7SqRkeCXcXIj2hglynH5hLptF1iCvr2NxFQ0POJ1ofDcZEtwzwPKQ+aEdHRirqVYdVIoR9BxbAb&#xA;W4pdirsVdiq+OKWVuMaM7daKCTT6MUEgc0XBoWtz09DT7mWu44QyNWnyGIa5Z8Y5yHzTK2/L7z1c&#xA;0MWgagQaFWa2lRSD0ILqoyXBLuLRLtDTx5zj8wm1p+S/5lXVCujNEvdppYI6fQzhvwyQwzPRx59t&#xA;aWP8f2H9Sd2X/OO3nufeeaxtB3DyuzfQI0YfjkxpplxZ+0WnHISPw/ayCw/5xmkNDf68B4xwW5P/&#xA;AA7uP+I5YNIepcPJ7TfzYfM/sZLp3/OO/kW24m6lvL5/2g8qxofkI1Vh/wAFkxpY9S4OT2i1EuXD&#xA;H4frZVpn5Z+QdNINpodryUUV5k9dh8mmMhr75aMEB0dfl7T1E+c5fd9zJIoooo1jiRY412VFAAA9&#xA;gMsApwiSdyuwodirsVdirsVdirsVdirsVdirsVdirsVdirsVdirsVdiriAQQRUHYg4qh/wBG6d/y&#xA;yw/8i1/pkeAdzPxJd5UW0HQ2Ys2nWrMdyxhjJJ+7B4ce4Mhnyfzj8200LRI2Dx6fbI46MsMYI+kD&#xA;Hw49wU58h/iPzVRp2njcWsNf+Ma/0w8A7mPiS7yiMkwdirsVdirsVdirsVdirsVdirsVdirsVdir&#xA;sVdirsVdirsVdirsVdirsVdirsVdirsVdirsVdirsVdirsVdirsVdirsVdirsVdirsVdirsVdirs&#xA;VdirsVdirsVdirsVdirsVdirsVdirsVdirsVdirsVdirsVdirsVdirsVdirsVdirsVdirsVdirsV&#xA;dirsVdir/9k=</xmpGImg:image>
               </rdf:li>
            </rdf:Alt>
         </xmp:Thumbnails>
         <xmpMM:InstanceID>xmp.iid:5b84a32e-4fff-41ce-9e8f-c09d4d14ac06</xmpMM:InstanceID>
         <xmpMM:DocumentID>xmp.did:5b84a32e-4fff-41ce-9e8f-c09d4d14ac06</xmpMM:DocumentID>
         <xmpMM:OriginalDocumentID>uuid:5D20892493BFDB11914A8590D31508C8</xmpMM:OriginalDocumentID>
         <xmpMM:RenditionClass>proof:pdf</xmpMM:RenditionClass>
         <xmpMM:DerivedFrom rdf:parseType="Resource">
            <stRef:instanceID>uuid:d1c078a0-2746-42b2-b0d1-25aedff8fb1e</stRef:instanceID>
            <stRef:documentID>xmp.did:1b6690ed-28a8-c141-9479-b6a9cf6be651</stRef:documentID>
            <stRef:originalDocumentID>uuid:5D20892493BFDB11914A8590D31508C8</stRef:originalDocumentID>
            <stRef:renditionClass>proof:pdf</stRef:renditionClass>
         </xmpMM:DerivedFrom>
         <xmpMM:History>
            <rdf:Seq>
               <rdf:li rdf:parseType="Resource">
                  <stEvt:action>saved</stEvt:action>
                  <stEvt:instanceID>xmp.iid:5b84a32e-4fff-41ce-9e8f-c09d4d14ac06</stEvt:instanceID>
                  <stEvt:when>2016-01-08T13:12:35-06:00</stEvt:when>
                  <stEvt:softwareAgent>Adobe Illustrator CC 2015 (Macintosh)</stEvt:softwareAgent>
                  <stEvt:changed>/</stEvt:changed>
               </rdf:li>
            </rdf:Seq>
         </xmpMM:History>
         <illustrator:StartupProfile>Print</illustrator:StartupProfile>
         <xmpTPg:HasVisibleOverprint>False</xmpTPg:HasVisibleOverprint>
         <xmpTPg:HasVisibleTransparency>False</xmpTPg:HasVisibleTransparency>
         <xmpTPg:NPages>1</xmpTPg:NPages>
         <xmpTPg:MaxPageSize rdf:parseType="Resource">
            <stDim:w>1080.000000</stDim:w>
            <stDim:h>281.000000</stDim:h>
            <stDim:unit>Points</stDim:unit>
         </xmpTPg:MaxPageSize>
         <xmpTPg:PlateNames>
            <rdf:Seq>
               <rdf:li>Cyan</rdf:li>
               <rdf:li>Magenta</rdf:li>
               <rdf:li>Yellow</rdf:li>
               <rdf:li>Black</rdf:li>
            </rdf:Seq>
         </xmpTPg:PlateNames>
         <xmpTPg:SwatchGroups>
            <rdf:Seq>
               <rdf:li rdf:parseType="Resource">
                  <xmpG:groupName>Default Swatch Group</xmpG:groupName>
                  <xmpG:groupType>0</xmpG:groupType>
                  <xmpG:Colorants>
                     <rdf:Seq>
                        <rdf:li rdf:parseType="Resource">
                           <xmpG:swatchName>White</xmpG:swatchName>
                           <xmpG:mode>CMYK</xmpG:mode>
                           <xmpG:type>PROCESS</xmpG:type>
                           <xmpG:cyan>0.000000</xmpG:cyan>
                           <xmpG:magenta>0.000000</xmpG:magenta>
                           <xmpG:yellow>0.000000</xmpG:yellow>
                           <xmpG:black>0.000000</xmpG:black>
                        </rdf:li>
                        <rdf:li rdf:parseType="Resource">
                           <xmpG:swatchName>Black</xmpG:swatchName>
                           <xmpG:mode>CMYK</xmpG:mode>
                           <xmpG:type>PROCESS</xmpG:type>
                           <xmpG:cyan>0.000000</xmpG:cyan>
                           <xmpG:magenta>0.000000</xmpG:magenta>
                           <xmpG:yellow>0.000000</xmpG:yellow>
                           <xmpG:black>100.000000</xmpG:black>
                        </rdf:li>
                        <rdf:li rdf:parseType="Resource">
                           <xmpG:swatchName>CMYK Red</xmpG:swatchName>
                           <xmpG:mode>CMYK</xmpG:mode>
                           <xmpG:type>PROCESS</xmpG:type>
                           <xmpG:cyan>0.000000</xmpG:cyan>
                           <xmpG:magenta>100.000000</xmpG:magenta>
                           <xmpG:yellow>100.000000</xmpG:yellow>
                           <xmpG:black>0.000000</xmpG:black>
                        </rdf:li>
                        <rdf:li rdf:parseType="Resource">
                           <xmpG:swatchName>CMYK Yellow</xmpG:swatchName>
                           <xmpG:mode>CMYK</xmpG:mode>
                           <xmpG:type>PROCESS</xmpG:type>
                           <xmpG:cyan>0.000000</xmpG:cyan>
                           <xmpG:magenta>0.000000</xmpG:magenta>
                           <xmpG:yellow>100.000000</xmpG:yellow>
                           <xmpG:black>0.000000</xmpG:black>
                        </rdf:li>
                        <rdf:li rdf:parseType="Resource">
                           <xmpG:swatchName>CMYK Green</xmpG:swatchName>
                           <xmpG:mode>CMYK</xmpG:mode>
                           <xmpG:type>PROCESS</xmpG:type>
                           <xmpG:cyan>100.000000</xmpG:cyan>
                           <xmpG:magenta>0.000000</xmpG:magenta>
                           <xmpG:yellow>100.000000</xmpG:yellow>
                           <xmpG:black>0.000000</xmpG:black>
                        </rdf:li>
                        <rdf:li rdf:parseType="Resource">
                           <xmpG:swatchName>CMYK Cyan</xmpG:swatchName>
                           <xmpG:mode>CMYK</xmpG:mode>
                           <xmpG:type>PROCESS</xmpG:type>
                           <xmpG:cyan>100.000000</xmpG:cyan>
                           <xmpG:magenta>0.000000</xmpG:magenta>
                           <xmpG:yellow>0.000000</xmpG:yellow>
                           <xmpG:black>0.000000</xmpG:black>
                        </rdf:li>
                        <rdf:li rdf:parseType="Resource">
                           <xmpG:swatchName>CMYK Blue</xmpG:swatchName>
                           <xmpG:mode>CMYK</xmpG:mode>
                           <xmpG:type>PROCESS</xmpG:type>
                           <xmpG:cyan>100.000000</xmpG:cyan>
                           <xmpG:magenta>100.000000</xmpG:magenta>
                           <xmpG:yellow>0.000000</xmpG:yellow>
                           <xmpG:black>0.000000</xmpG:black>
                        </rdf:li>
                        <rdf:li rdf:parseType="Resource">
                           <xmpG:swatchName>CMYK Magenta</xmpG:swatchName>
                           <xmpG:mode>CMYK</xmpG:mode>
                           <xmpG:type>PROCESS</xmpG:type>
                           <xmpG:cyan>0.000000</xmpG:cyan>
                           <xmpG:magenta>100.000000</xmpG:magenta>
                           <xmpG:yellow>0.000000</xmpG:yellow>
                           <xmpG:black>0.000000</xmpG:black>
                        </rdf:li>
                        <rdf:li rdf:parseType="Resource">
                           <xmpG:swatchName>C=15 M=100 Y=90 K=10</xmpG:swatchName>
                           <xmpG:mode>CMYK</xmpG:mode>
                           <xmpG:type>PROCESS</xmpG:type>
                           <xmpG:cyan>15.000000</xmpG:cyan>
                           <xmpG:magenta>100.000000</xmpG:magenta>
                           <xmpG:yellow>90.000000</xmpG:yellow>
                           <xmpG:black>10.000000</xmpG:black>
                        </rdf:li>
                        <rdf:li rdf:parseType="Resource">
                           <xmpG:swatchName>C=0 M=90 Y=85 K=0</xmpG:swatchName>
                           <xmpG:mode>CMYK</xmpG:mode>
                           <xmpG:type>PROCESS</xmpG:type>
                           <xmpG:cyan>0.000000</xmpG:cyan>
                           <xmpG:magenta>90.000000</xmpG:magenta>
                           <xmpG:yellow>85.000000</xmpG:yellow>
                           <xmpG:black>0.000000</xmpG:black>
                        </rdf:li>
                        <rdf:li rdf:parseType="Resource">
                           <xmpG:swatchName>C=0 M=80 Y=95 K=0</xmpG:swatchName>
                           <xmpG:mode>CMYK</xmpG:mode>
                           <xmpG:type>PROCESS</xmpG:type>
                           <xmpG:cyan>0.000000</xmpG:cyan>
                           <xmpG:magenta>80.000000</xmpG:magenta>
                           <xmpG:yellow>95.000000</xmpG:yellow>
                           <xmpG:black>0.000000</xmpG:black>
                        </rdf:li>
                        <rdf:li rdf:parseType="Resource">
                           <xmpG:swatchName>C=0 M=50 Y=100 K=0</xmpG:swatchName>
                           <xmpG:mode>CMYK</xmpG:mode>
                           <xmpG:type>PROCESS</xmpG:type>
                           <xmpG:cyan>0.000000</xmpG:cyan>
                           <xmpG:magenta>50.000000</xmpG:magenta>
                           <xmpG:yellow>100.000000</xmpG:yellow>
                           <xmpG:black>0.000000</xmpG:black>
                        </rdf:li>
                        <rdf:li rdf:parseType="Resource">
                           <xmpG:swatchName>C=0 M=35 Y=85 K=0</xmpG:swatchName>
                           <xmpG:mode>CMYK</xmpG:mode>
                           <xmpG:type>PROCESS</xmpG:type>
                           <xmpG:cyan>0.000000</xmpG:cyan>
                           <xmpG:magenta>35.000000</xmpG:magenta>
                           <xmpG:yellow>85.000000</xmpG:yellow>
                           <xmpG:black>0.000000</xmpG:black>
                        </rdf:li>
                        <rdf:li rdf:parseType="Resource">
                           <xmpG:swatchName>C=5 M=0 Y=90 K=0</xmpG:swatchName>
                           <xmpG:mode>CMYK</xmpG:mode>
                           <xmpG:type>PROCESS</xmpG:type>
                           <xmpG:cyan>5.000000</xmpG:cyan>
                           <xmpG:magenta>0.000000</xmpG:magenta>
                           <xmpG:yellow>90.000000</xmpG:yellow>
                           <xmpG:black>0.000000</xmpG:black>
                        </rdf:li>
                        <rdf:li rdf:parseType="Resource">
                           <xmpG:swatchName>C=20 M=0 Y=100 K=0</xmpG:swatchName>
                           <xmpG:mode>CMYK</xmpG:mode>
                           <xmpG:type>PROCESS</xmpG:type>
                           <xmpG:cyan>20.000000</xmpG:cyan>
                           <xmpG:magenta>0.000000</xmpG:magenta>
                           <xmpG:yellow>100.000000</xmpG:yellow>
                           <xmpG:black>0.000000</xmpG:black>
                        </rdf:li>
                        <rdf:li rdf:parseType="Resource">
                           <xmpG:swatchName>C=50 M=0 Y=100 K=0</xmpG:swatchName>
                           <xmpG:mode>CMYK</xmpG:mode>
                           <xmpG:type>PROCESS</xmpG:type>
                           <xmpG:cyan>50.000000</xmpG:cyan>
                           <xmpG:magenta>0.000000</xmpG:magenta>
                           <xmpG:yellow>100.000000</xmpG:yellow>
                           <xmpG:black>0.000000</xmpG:black>
                        </rdf:li>
                        <rdf:li rdf:parseType="Resource">
                           <xmpG:swatchName>C=75 M=0 Y=100 K=0</xmpG:swatchName>
                           <xmpG:mode>CMYK</xmpG:mode>
                           <xmpG:type>PROCESS</xmpG:type>
                           <xmpG:cyan>75.000000</xmpG:cyan>
                           <xmpG:magenta>0.000000</xmpG:magenta>
                           <xmpG:yellow>100.000000</xmpG:yellow>
                           <xmpG:black>0.000000</xmpG:black>
                        </rdf:li>
                        <rdf:li rdf:parseType="Resource">
                           <xmpG:swatchName>C=85 M=10 Y=100 K=10</xmpG:swatchName>
                           <xmpG:mode>CMYK</xmpG:mode>
                           <xmpG:type>PROCESS</xmpG:type>
                           <xmpG:cyan>85.000000</xmpG:cyan>
                           <xmpG:magenta>10.000000</xmpG:magenta>
                           <xmpG:yellow>100.000000</xmpG:yellow>
                           <xmpG:black>10.000000</xmpG:black>
                        </rdf:li>
                        <rdf:li rdf:parseType="Resource">
                           <xmpG:swatchName>C=90 M=30 Y=95 K=30</xmpG:swatchName>
                           <xmpG:mode>CMYK</xmpG:mode>
                           <xmpG:type>PROCESS</xmpG:type>
                           <xmpG:cyan>90.000000</xmpG:cyan>
                           <xmpG:magenta>30.000000</xmpG:magenta>
                           <xmpG:yellow>95.000000</xmpG:yellow>
                           <xmpG:black>30.000000</xmpG:black>
                        </rdf:li>
                        <rdf:li rdf:parseType="Resource">
                           <xmpG:swatchName>C=75 M=0 Y=75 K=0</xmpG:swatchName>
                           <xmpG:mode>CMYK</xmpG:mode>
                           <xmpG:type>PROCESS</xmpG:type>
                           <xmpG:cyan>75.000000</xmpG:cyan>
                           <xmpG:magenta>0.000000</xmpG:magenta>
                           <xmpG:yellow>75.000000</xmpG:yellow>
                           <xmpG:black>0.000000</xmpG:black>
                        </rdf:li>
                        <rdf:li rdf:parseType="Resource">
                           <xmpG:swatchName>C=80 M=10 Y=45 K=0</xmpG:swatchName>
                           <xmpG:mode>CMYK</xmpG:mode>
                           <xmpG:type>PROCESS</xmpG:type>
                           <xmpG:cyan>80.000000</xmpG:cyan>
                           <xmpG:magenta>10.000000</xmpG:magenta>
                           <xmpG:yellow>45.000000</xmpG:yellow>
                           <xmpG:black>0.000000</xmpG:black>
                        </rdf:li>
                        <rdf:li rdf:parseType="Resource">
                           <xmpG:swatchName>C=70 M=15 Y=0 K=0</xmpG:swatchName>
                           <xmpG:mode>CMYK</xmpG:mode>
                           <xmpG:type>PROCESS</xmpG:type>
                           <xmpG:cyan>70.000000</xmpG:cyan>
                           <xmpG:magenta>15.000000</xmpG:magenta>
                           <xmpG:yellow>0.000000</xmpG:yellow>
                           <xmpG:black>0.000000</xmpG:black>
                        </rdf:li>
                        <rdf:li rdf:parseType="Resource">
                           <xmpG:swatchName>C=85 M=50 Y=0 K=0</xmpG:swatchName>
                           <xmpG:mode>CMYK</xmpG:mode>
                           <xmpG:type>PROCESS</xmpG:type>
                           <xmpG:cyan>85.000000</xmpG:cyan>
                           <xmpG:magenta>50.000000</xmpG:magenta>
                           <xmpG:yellow>0.000000</xmpG:yellow>
                           <xmpG:black>0.000000</xmpG:black>
                        </rdf:li>
                        <rdf:li rdf:parseType="Resource">
                           <xmpG:swatchName>C=100 M=95 Y=5 K=0</xmpG:swatchName>
                           <xmpG:mode>CMYK</xmpG:mode>
                           <xmpG:type>PROCESS</xmpG:type>
                           <xmpG:cyan>100.000000</xmpG:cyan>
                           <xmpG:magenta>95.000000</xmpG:magenta>
                           <xmpG:yellow>5.000000</xmpG:yellow>
                           <xmpG:black>0.000000</xmpG:black>
                        </rdf:li>
                        <rdf:li rdf:parseType="Resource">
                           <xmpG:swatchName>C=100 M=100 Y=25 K=25</xmpG:swatchName>
                           <xmpG:mode>CMYK</xmpG:mode>
                           <xmpG:type>PROCESS</xmpG:type>
                           <xmpG:cyan>100.000000</xmpG:cyan>
                           <xmpG:magenta>100.000000</xmpG:magenta>
                           <xmpG:yellow>25.000000</xmpG:yellow>
                           <xmpG:black>25.000000</xmpG:black>
                        </rdf:li>
                        <rdf:li rdf:parseType="Resource">
                           <xmpG:swatchName>C=75 M=100 Y=0 K=0</xmpG:swatchName>
                           <xmpG:mode>CMYK</xmpG:mode>
                           <xmpG:type>PROCESS</xmpG:type>
                           <xmpG:cyan>75.000000</xmpG:cyan>
                           <xmpG:magenta>100.000000</xmpG:magenta>
                           <xmpG:yellow>0.000000</xmpG:yellow>
                           <xmpG:black>0.000000</xmpG:black>
                        </rdf:li>
                        <rdf:li rdf:parseType="Resource">
                           <xmpG:swatchName>C=50 M=100 Y=0 K=0</xmpG:swatchName>
                           <xmpG:mode>CMYK</xmpG:mode>
                           <xmpG:type>PROCESS</xmpG:type>
                           <xmpG:cyan>50.000000</xmpG:cyan>
                           <xmpG:magenta>100.000000</xmpG:magenta>
                           <xmpG:yellow>0.000000</xmpG:yellow>
                           <xmpG:black>0.000000</xmpG:black>
                        </rdf:li>
                        <rdf:li rdf:parseType="Resource">
                           <xmpG:swatchName>C=35 M=100 Y=35 K=10</xmpG:swatchName>
                           <xmpG:mode>CMYK</xmpG:mode>
                           <xmpG:type>PROCESS</xmpG:type>
                           <xmpG:cyan>35.000000</xmpG:cyan>
                           <xmpG:magenta>100.000000</xmpG:magenta>
                           <xmpG:yellow>35.000000</xmpG:yellow>
                           <xmpG:black>10.000000</xmpG:black>
                        </rdf:li>
                        <rdf:li rdf:parseType="Resource">
                           <xmpG:swatchName>C=10 M=100 Y=50 K=0</xmpG:swatchName>
                           <xmpG:mode>CMYK</xmpG:mode>
                           <xmpG:type>PROCESS</xmpG:type>
                           <xmpG:cyan>10.000000</xmpG:cyan>
                           <xmpG:magenta>100.000000</xmpG:magenta>
                           <xmpG:yellow>50.000000</xmpG:yellow>
                           <xmpG:black>0.000000</xmpG:black>
                        </rdf:li>
                        <rdf:li rdf:parseType="Resource">
                           <xmpG:swatchName>C=0 M=95 Y=20 K=0</xmpG:swatchName>
                           <xmpG:mode>CMYK</xmpG:mode>
                           <xmpG:type>PROCESS</xmpG:type>
                           <xmpG:cyan>0.000000</xmpG:cyan>
                           <xmpG:magenta>95.000000</xmpG:magenta>
                           <xmpG:yellow>20.000000</xmpG:yellow>
                           <xmpG:black>0.000000</xmpG:black>
                        </rdf:li>
                        <rdf:li rdf:parseType="Resource">
                           <xmpG:swatchName>C=25 M=25 Y=40 K=0</xmpG:swatchName>
                           <xmpG:mode>CMYK</xmpG:mode>
                           <xmpG:type>PROCESS</xmpG:type>
                           <xmpG:cyan>25.000000</xmpG:cyan>
                           <xmpG:magenta>25.000000</xmpG:magenta>
                           <xmpG:yellow>40.000000</xmpG:yellow>
                           <xmpG:black>0.000000</xmpG:black>
                        </rdf:li>
                        <rdf:li rdf:parseType="Resource">
                           <xmpG:swatchName>C=40 M=45 Y=50 K=5</xmpG:swatchName>
                           <xmpG:mode>CMYK</xmpG:mode>
                           <xmpG:type>PROCESS</xmpG:type>
                           <xmpG:cyan>40.000000</xmpG:cyan>
                           <xmpG:magenta>45.000000</xmpG:magenta>
                           <xmpG:yellow>50.000000</xmpG:yellow>
                           <xmpG:black>5.000000</xmpG:black>
                        </rdf:li>
                        <rdf:li rdf:parseType="Resource">
                           <xmpG:swatchName>C=50 M=50 Y=60 K=25</xmpG:swatchName>
                           <xmpG:mode>CMYK</xmpG:mode>
                           <xmpG:type>PROCESS</xmpG:type>
                           <xmpG:cyan>50.000000</xmpG:cyan>
                           <xmpG:magenta>50.000000</xmpG:magenta>
                           <xmpG:yellow>60.000000</xmpG:yellow>
                           <xmpG:black>25.000000</xmpG:black>
                        </rdf:li>
                        <rdf:li rdf:parseType="Resource">
                           <xmpG:swatchName>C=55 M=60 Y=65 K=40</xmpG:swatchName>
                           <xmpG:mode>CMYK</xmpG:mode>
                           <xmpG:type>PROCESS</xmpG:type>
                           <xmpG:cyan>55.000000</xmpG:cyan>
                           <xmpG:magenta>60.000000</xmpG:magenta>
                           <xmpG:yellow>65.000000</xmpG:yellow>
                           <xmpG:black>40.000000</xmpG:black>
                        </rdf:li>
                        <rdf:li rdf:parseType="Resource">
                           <xmpG:swatchName>C=25 M=40 Y=65 K=0</xmpG:swatchName>
                           <xmpG:mode>CMYK</xmpG:mode>
                           <xmpG:type>PROCESS</xmpG:type>
                           <xmpG:cyan>25.000000</xmpG:cyan>
                           <xmpG:magenta>40.000000</xmpG:magenta>
                           <xmpG:yellow>65.000000</xmpG:yellow>
                           <xmpG:black>0.000000</xmpG:black>
                        </rdf:li>
                        <rdf:li rdf:parseType="Resource">
                           <xmpG:swatchName>C=30 M=50 Y=75 K=10</xmpG:swatchName>
                           <xmpG:mode>CMYK</xmpG:mode>
                           <xmpG:type>PROCESS</xmpG:type>
                           <xmpG:cyan>30.000000</xmpG:cyan>
                           <xmpG:magenta>50.000000</xmpG:magenta>
                           <xmpG:yellow>75.000000</xmpG:yellow>
                           <xmpG:black>10.000000</xmpG:black>
                        </rdf:li>
                        <rdf:li rdf:parseType="Resource">
                           <xmpG:swatchName>C=35 M=60 Y=80 K=25</xmpG:swatchName>
                           <xmpG:mode>CMYK</xmpG:mode>
                           <xmpG:type>PROCESS</xmpG:type>
                           <xmpG:cyan>35.000000</xmpG:cyan>
                           <xmpG:magenta>60.000000</xmpG:magenta>
                           <xmpG:yellow>80.000000</xmpG:yellow>
                           <xmpG:black>25.000000</xmpG:black>
                        </rdf:li>
                        <rdf:li rdf:parseType="Resource">
                           <xmpG:swatchName>C=40 M=65 Y=90 K=35</xmpG:swatchName>
                           <xmpG:mode>CMYK</xmpG:mode>
                           <xmpG:type>PROCESS</xmpG:type>
                           <xmpG:cyan>40.000000</xmpG:cyan>
                           <xmpG:magenta>65.000000</xmpG:magenta>
                           <xmpG:yellow>90.000000</xmpG:yellow>
                           <xmpG:black>35.000000</xmpG:black>
                        </rdf:li>
                        <rdf:li rdf:parseType="Resource">
                           <xmpG:swatchName>C=40 M=70 Y=100 K=50</xmpG:swatchName>
                           <xmpG:mode>CMYK</xmpG:mode>
                           <xmpG:type>PROCESS</xmpG:type>
                           <xmpG:cyan>40.000000</xmpG:cyan>
                           <xmpG:magenta>70.000000</xmpG:magenta>
                           <xmpG:yellow>100.000000</xmpG:yellow>
                           <xmpG:black>50.000000</xmpG:black>
                        </rdf:li>
                        <rdf:li rdf:parseType="Resource">
                           <xmpG:swatchName>C=50 M=70 Y=80 K=70</xmpG:swatchName>
                           <xmpG:mode>CMYK</xmpG:mode>
                           <xmpG:type>PROCESS</xmpG:type>
                           <xmpG:cyan>50.000000</xmpG:cyan>
                           <xmpG:magenta>70.000000</xmpG:magenta>
                           <xmpG:yellow>80.000000</xmpG:yellow>
                           <xmpG:black>70.000000</xmpG:black>
                        </rdf:li>
                     </rdf:Seq>
                  </xmpG:Colorants>
               </rdf:li>
               <rdf:li rdf:parseType="Resource">
                  <xmpG:groupName>Grays</xmpG:groupName>
                  <xmpG:groupType>1</xmpG:groupType>
                  <xmpG:Colorants>
                     <rdf:Seq>
                        <rdf:li rdf:parseType="Resource">
                           <xmpG:swatchName>C=0 M=0 Y=0 K=100</xmpG:swatchName>
                           <xmpG:mode>CMYK</xmpG:mode>
                           <xmpG:type>PROCESS</xmpG:type>
                           <xmpG:cyan>0.000000</xmpG:cyan>
                           <xmpG:magenta>0.000000</xmpG:magenta>
                           <xmpG:yellow>0.000000</xmpG:yellow>
                           <xmpG:black>100.000000</xmpG:black>
                        </rdf:li>
                        <rdf:li rdf:parseType="Resource">
                           <xmpG:swatchName>C=0 M=0 Y=0 K=90</xmpG:swatchName>
                           <xmpG:mode>CMYK</xmpG:mode>
                           <xmpG:type>PROCESS</xmpG:type>
                           <xmpG:cyan>0.000000</xmpG:cyan>
                           <xmpG:magenta>0.000000</xmpG:magenta>
                           <xmpG:yellow>0.000000</xmpG:yellow>
                           <xmpG:black>89.999400</xmpG:black>
                        </rdf:li>
                        <rdf:li rdf:parseType="Resource">
                           <xmpG:swatchName>C=0 M=0 Y=0 K=80</xmpG:swatchName>
                           <xmpG:mode>CMYK</xmpG:mode>
                           <xmpG:type>PROCESS</xmpG:type>
                           <xmpG:cyan>0.000000</xmpG:cyan>
                           <xmpG:magenta>0.000000</xmpG:magenta>
                           <xmpG:yellow>0.000000</xmpG:yellow>
                           <xmpG:black>79.998800</xmpG:black>
                        </rdf:li>
                        <rdf:li rdf:parseType="Resource">
                           <xmpG:swatchName>C=0 M=0 Y=0 K=70</xmpG:swatchName>
                           <xmpG:mode>CMYK</xmpG:mode>
                           <xmpG:type>PROCESS</xmpG:type>
                           <xmpG:cyan>0.000000</xmpG:cyan>
                           <xmpG:magenta>0.000000</xmpG:magenta>
                           <xmpG:yellow>0.000000</xmpG:yellow>
                           <xmpG:black>69.999700</xmpG:black>
                        </rdf:li>
                        <rdf:li rdf:parseType="Resource">
                           <xmpG:swatchName>C=0 M=0 Y=0 K=60</xmpG:swatchName>
                           <xmpG:mode>CMYK</xmpG:mode>
                           <xmpG:type>PROCESS</xmpG:type>
                           <xmpG:cyan>0.000000</xmpG:cyan>
                           <xmpG:magenta>0.000000</xmpG:magenta>
                           <xmpG:yellow>0.000000</xmpG:yellow>
                           <xmpG:black>59.999100</xmpG:black>
                        </rdf:li>
                        <rdf:li rdf:parseType="Resource">
                           <xmpG:swatchName>C=0 M=0 Y=0 K=50</xmpG:swatchName>
                           <xmpG:mode>CMYK</xmpG:mode>
                           <xmpG:type>PROCESS</xmpG:type>
                           <xmpG:cyan>0.000000</xmpG:cyan>
                           <xmpG:magenta>0.000000</xmpG:magenta>
                           <xmpG:yellow>0.000000</xmpG:yellow>
                           <xmpG:black>50.000000</xmpG:black>
                        </rdf:li>
                        <rdf:li rdf:parseType="Resource">
                           <xmpG:swatchName>C=0 M=0 Y=0 K=40</xmpG:swatchName>
                           <xmpG:mode>CMYK</xmpG:mode>
                           <xmpG:type>PROCESS</xmpG:type>
                           <xmpG:cyan>0.000000</xmpG:cyan>
                           <xmpG:magenta>0.000000</xmpG:magenta>
                           <xmpG:yellow>0.000000</xmpG:yellow>
                           <xmpG:black>39.999400</xmpG:black>
                        </rdf:li>
                        <rdf:li rdf:parseType="Resource">
                           <xmpG:swatchName>C=0 M=0 Y=0 K=30</xmpG:swatchName>
                           <xmpG:mode>CMYK</xmpG:mode>
                           <xmpG:type>PROCESS</xmpG:type>
                           <xmpG:cyan>0.000000</xmpG:cyan>
                           <xmpG:magenta>0.000000</xmpG:magenta>
                           <xmpG:yellow>0.000000</xmpG:yellow>
                           <xmpG:black>29.998800</xmpG:black>
                        </rdf:li>
                        <rdf:li rdf:parseType="Resource">
                           <xmpG:swatchName>C=0 M=0 Y=0 K=20</xmpG:swatchName>
                           <xmpG:mode>CMYK</xmpG:mode>
                           <xmpG:type>PROCESS</xmpG:type>
                           <xmpG:cyan>0.000000</xmpG:cyan>
                           <xmpG:magenta>0.000000</xmpG:magenta>
                           <xmpG:yellow>0.000000</xmpG:yellow>
                           <xmpG:black>19.999700</xmpG:black>
                        </rdf:li>
                        <rdf:li rdf:parseType="Resource">
                           <xmpG:swatchName>C=0 M=0 Y=0 K=10</xmpG:swatchName>
                           <xmpG:mode>CMYK</xmpG:mode>
                           <xmpG:type>PROCESS</xmpG:type>
                           <xmpG:cyan>0.000000</xmpG:cyan>
                           <xmpG:magenta>0.000000</xmpG:magenta>
                           <xmpG:yellow>0.000000</xmpG:yellow>
                           <xmpG:black>9.999100</xmpG:black>
                        </rdf:li>
                        <rdf:li rdf:parseType="Resource">
                           <xmpG:swatchName>C=0 M=0 Y=0 K=5</xmpG:swatchName>
                           <xmpG:mode>CMYK</xmpG:mode>
                           <xmpG:type>PROCESS</xmpG:type>
                           <xmpG:cyan>0.000000</xmpG:cyan>
                           <xmpG:magenta>0.000000</xmpG:magenta>
                           <xmpG:yellow>0.000000</xmpG:yellow>
                           <xmpG:black>4.998800</xmpG:black>
                        </rdf:li>
                     </rdf:Seq>
                  </xmpG:Colorants>
               </rdf:li>
               <rdf:li rdf:parseType="Resource">
                  <xmpG:groupName>Brights</xmpG:groupName>
                  <xmpG:groupType>1</xmpG:groupType>
                  <xmpG:Colorants>
                     <rdf:Seq>
                        <rdf:li rdf:parseType="Resource">
                           <xmpG:swatchName>C=0 M=100 Y=100 K=0</xmpG:swatchName>
                           <xmpG:mode>CMYK</xmpG:mode>
                           <xmpG:type>PROCESS</xmpG:type>
                           <xmpG:cyan>0.000000</xmpG:cyan>
                           <xmpG:magenta>100.000000</xmpG:magenta>
                           <xmpG:yellow>100.000000</xmpG:yellow>
                           <xmpG:black>0.000000</xmpG:black>
                        </rdf:li>
                        <rdf:li rdf:parseType="Resource">
                           <xmpG:swatchName>C=0 M=75 Y=100 K=0</xmpG:swatchName>
                           <xmpG:mode>CMYK</xmpG:mode>
                           <xmpG:type>PROCESS</xmpG:type>
                           <xmpG:cyan>0.000000</xmpG:cyan>
                           <xmpG:magenta>75.000000</xmpG:magenta>
                           <xmpG:yellow>100.000000</xmpG:yellow>
                           <xmpG:black>0.000000</xmpG:black>
                        </rdf:li>
                        <rdf:li rdf:parseType="Resource">
                           <xmpG:swatchName>C=0 M=10 Y=95 K=0</xmpG:swatchName>
                           <xmpG:mode>CMYK</xmpG:mode>
                           <xmpG:type>PROCESS</xmpG:type>
                           <xmpG:cyan>0.000000</xmpG:cyan>
                           <xmpG:magenta>10.000000</xmpG:magenta>
                           <xmpG:yellow>95.000000</xmpG:yellow>
                           <xmpG:black>0.000000</xmpG:black>
                        </rdf:li>
                        <rdf:li rdf:parseType="Resource">
                           <xmpG:swatchName>C=85 M=10 Y=100 K=0</xmpG:swatchName>
                           <xmpG:mode>CMYK</xmpG:mode>
                           <xmpG:type>PROCESS</xmpG:type>
                           <xmpG:cyan>85.000000</xmpG:cyan>
                           <xmpG:magenta>10.000000</xmpG:magenta>
                           <xmpG:yellow>100.000000</xmpG:yellow>
                           <xmpG:black>0.000000</xmpG:black>
                        </rdf:li>
                        <rdf:li rdf:parseType="Resource">
                           <xmpG:swatchName>C=100 M=90 Y=0 K=0</xmpG:swatchName>
                           <xmpG:mode>CMYK</xmpG:mode>
                           <xmpG:type>PROCESS</xmpG:type>
                           <xmpG:cyan>100.000000</xmpG:cyan>
                           <xmpG:magenta>90.000000</xmpG:magenta>
                           <xmpG:yellow>0.000000</xmpG:yellow>
                           <xmpG:black>0.000000</xmpG:black>
                        </rdf:li>
                        <rdf:li rdf:parseType="Resource">
                           <xmpG:swatchName>C=60 M=90 Y=0 K=0</xmpG:swatchName>
                           <xmpG:mode>CMYK</xmpG:mode>
                           <xmpG:type>PROCESS</xmpG:type>
                           <xmpG:cyan>60.000000</xmpG:cyan>
                           <xmpG:magenta>90.000000</xmpG:magenta>
                           <xmpG:yellow>0.003100</xmpG:yellow>
                           <xmpG:black>0.003100</xmpG:black>
                        </rdf:li>
                     </rdf:Seq>
                  </xmpG:Colorants>
               </rdf:li>
            </rdf:Seq>
         </xmpTPg:SwatchGroups>
         <pdf:Producer>Adobe PDF library 10.01</pdf:Producer>
      </rdf:Description>
   </rdf:RDF>
</x:xmpmeta>
                                                                                                    
                                                                                                    
                                                                                                    
                                                                                                    
                                                                                                    
                                                                                                    
                                                                                                    
                                                                                                    
                                                                                                    
                                                                                                    
                                                                                                    
                                                                                                    
                                                                                                    
                                                                                                    
                                                                                                    
                                                                                                    
                                                                                                    
                                                                                                    
                                                                                                    
                                                                                                    
                           
<?xpacket end="w"?>
	</metadata>
<g>
	<g>
		<path fill="#FFFFFF" d="M295.1,214.8l14.9,2c13.5,1.8,21.6,12.3,20,24.4l0,0.1c-1.6,12.1-12.2,20.3-25.7,18.5l-14.9-2L295.1,214.8
			z M304.9,255.3c10.9,1.4,18.8-5,20.1-14.6l0-0.1c1.3-9.5-4.7-17.9-15.6-19.4l-10.1-1.3l-4.5,34.1L304.9,255.3z"/>
		<path fill="#FFFFFF" d="M354.9,221.7l4.6,0.5l15.2,45.5l-5.2-0.5l-3.9-11.9l-23.5-2.4l-6.3,10.9l-5-0.5L354.9,221.7z M364,250.7
			l-7.5-23l-12.2,21L364,250.7z"/>
		<path fill="#FFFFFF" d="M391,251.8l-15.9-27.6l5.9,0.5l12.8,22.8l16.4-20.4l5.7,0.5l-20.1,24.6l-1.4,17.2l-4.9-0.4L391,251.8z"/>
		<path fill="#FFFFFF" d="M415.5,264.5l3.2-3.4c4.3,4.3,8.5,6.6,14.5,7c5.8,0.3,9.8-2.5,10.1-6.8l0-0.1c0.2-4-1.8-6.4-10.8-8.9
			c-9.8-2.7-14.2-6.2-13.8-13.3l0-0.1c0.4-6.8,6.7-11.5,14.9-11c6.3,0.4,10.7,2.4,14.9,6.2l-3.1,3.6c-3.8-3.5-7.8-5.2-12.2-5.4
			c-5.6-0.3-9.4,2.6-9.6,6.5l0,0.1c-0.2,4.1,1.9,6.5,11.3,9.1c9.5,2.7,13.8,6.4,13.4,13.1l0,0.1c-0.4,7.4-6.9,11.9-15.5,11.4
			C425.9,272.1,420.4,269.5,415.5,264.5z"/>
		<path fill="#FFFFFF" d="M474.3,252.3l0-0.1c0.3-12,9.5-22.2,22.7-22c13.2,0.3,21.8,10.8,21.6,22.8c0.1,0.1,0.1,0.1,0,0.1
			c-0.3,12-9.5,22.2-22.7,22C482.7,274.8,474.1,264.3,474.3,252.3z M513.5,253.1l0-0.1c0.2-9.9-6.8-18.1-16.7-18.3
			s-17.2,7.6-17.4,17.4l0,0.1c-0.2,9.9,6.8,18.1,16.7,18.3S513.3,263,513.5,253.1z"/>
		<path fill="#FFFFFF" d="M528.4,231.4l31.2-0.2l0,4.5l-26.3,0.2l0.1,15.5l23.5-0.2l0,4.5l-23.5,0.2l0.1,18.9l-4.9,0L528.4,231.4z"
			/>
		<path fill="#FFFFFF" d="M586,230.7l15.1-0.6c13.6-0.5,23.4,8.5,23.9,20.7l0,0.1c0.5,12.2-8.6,22.1-22.2,22.6l-15.1,0.6L586,230.7z
			 M602.5,269c11-0.4,17.7-8.1,17.3-17.7l0-0.1c-0.4-9.6-7.7-16.9-18.6-16.5L591,235l1.3,34.3L602.5,269z"/>
		<path fill="#FFFFFF" d="M633,228.7l31.3-2l0.3,4.5l-26.4,1.7l1,14.8l23.6-1.5l0.3,4.5l-23.6,1.5l1,15.2l26.7-1.7l0.3,4.5l-31.6,2
			L633,228.7z"/>
		<path fill="#FFFFFF" d="M689,224.2l4.6-0.4l23.6,41.7l-5.2,0.5l-6.1-11l-23.5,2.1l-4.1,11.9l-5,0.5L689,224.2z M703.6,250.9
			l-11.8-21.2l-7.9,22.9L703.6,250.9z"/>
		<path fill="#FFFFFF" d="M720.5,221.5l4.9-0.6l4.5,38.6l24.3-2.8l0.5,4.5l-29.1,3.4L720.5,221.5z"/>
		<path fill="#FFFFFF" d="M759.6,254.2l2.5-4c5.1,3.4,9.6,4.8,15.6,4c5.8-0.8,9.1-4.4,8.5-8.7l0-0.1c-0.6-4-3-6-12.3-6.6
			c-10.2-0.8-15.2-3.3-16.2-10.4l0-0.1c-1-6.8,4.3-12.6,12.5-13.7c6.3-0.9,11,0.3,15.8,3.1l-2.3,4.1c-4.5-2.7-8.6-3.5-13.1-2.9
			c-5.6,0.8-8.7,4.4-8.2,8.2l0,0.1c0.6,4.1,3.1,6,12.8,6.7c9.9,0.7,14.8,3.6,15.7,10.2l0,0.1c1,7.4-4.4,13-13,14.2
			C771.3,259.6,765.4,258.1,759.6,254.2z"/>
	</g>
	<path fill="#BD2227" d="M0.3,0v111.2c142.4,57.5,331.1,92.6,538.2,92.6c208.8,0,399-35.6,541.8-94V0H0.3z"/>
	<g>
		<g>
			<path fill="#FFFFFF" d="M686.7,121.2c1.2,0,2.5,0.3,3.6,1c1.2,0.6,2.1,1.5,2.8,2.7c0.7,1.2,1,2.4,1,3.7c0,1.3-0.3,2.5-1,3.7
				c-0.6,1.2-1.6,2.1-2.7,2.7c-1.2,0.6-2.4,1-3.7,1c-1.3,0-2.5-0.3-3.7-1c-1.2-0.6-2.1-1.6-2.7-2.7c-0.7-1.2-1-2.4-1-3.7
				c0-1.3,0.3-2.5,1-3.7c0.7-1.2,1.6-2.1,2.8-2.7C684.3,121.5,685.5,121.2,686.7,121.2z M686.7,122.4c-1,0-2.1,0.3-3,0.8
				c-1,0.5-1.8,1.3-2.3,2.3c-0.6,1-0.8,2-0.8,3.1c0,1.1,0.3,2.1,0.8,3.1c0.5,1,1.3,1.7,2.3,2.3c1,0.5,2,0.8,3.1,0.8
				c1.1,0,2.1-0.3,3.1-0.8c1-0.5,1.7-1.3,2.3-2.3c0.5-1,0.8-2,0.8-3.1c0-1.1-0.3-2.1-0.8-3.1c-0.6-1-1.3-1.8-2.3-2.3
				C688.8,122.7,687.7,122.4,686.7,122.4z M683.5,132.7v-8h2.7c0.9,0,1.6,0.1,2,0.2c0.4,0.1,0.8,0.4,1,0.8c0.2,0.4,0.4,0.8,0.4,1.2
				c0,0.6-0.2,1.1-0.6,1.5c-0.4,0.4-1,0.7-1.6,0.7c0.3,0.1,0.5,0.3,0.7,0.4c0.3,0.3,0.7,0.8,1.2,1.6l1,1.6h-1.6l-0.7-1.3
				c-0.6-1-1-1.6-1.3-1.9c-0.2-0.2-0.6-0.3-1-0.3h-0.8v3.4H683.5z M684.8,128.2h1.6c0.7,0,1.3-0.1,1.5-0.3c0.3-0.2,0.4-0.5,0.4-0.9
				c0-0.2-0.1-0.4-0.2-0.6c-0.1-0.2-0.3-0.3-0.5-0.4c-0.2-0.1-0.7-0.1-1.3-0.1h-1.5V128.2z"/>
		</g>
		<g>
			<path fill="#FFFFFF" d="M442.5,84.7c-11.6,0-21.4,9.2-21.4,20.7v10c0,11.2,9.3,20.6,20.7,20.6c7.8,0,14.6-4.1,18.3-10.1
				c0.4-0.9,0.1-2.1-0.7-2.6l-5-2.9c-1.1-0.7-2.6-0.4-3.3,1c-1.8,3.1-5.1,5-8.8,5c-4.5,0-8.3-2.9-9.8-7c-0.5-1.2-0.2-2.4,1.7-2.9
				l26.5-6.9c1.8-0.5,2.6-1.4,2.6-3.2v-1C463.3,94.1,454,84.7,442.5,84.7z M449.9,101.6l-16.1,4.2c-1,0.3-2.2-0.3-2-1.9
				c0.7-5.3,4.8-9.6,10.2-9.6c3.8,0,6.9,1.9,8.8,4.9C451.6,100.4,451.3,101.2,449.9,101.6z"/>
			<path fill="#FFFFFF" d="M510.9,68.6h-5.1c-2.1,0-2.9,0.9-2.9,3.1v11.8c0,1.3-0.5,2.6-2.5,2c-1.9-0.5-3.9-0.9-6-0.9
				c-11.6,0-21.3,9.2-21.3,20.7v10c0,11.2,9.2,20.6,20.7,20.6c4.5,0,16.5-1.3,16.5-1.3c1.8-0.1,3.1-1.2,3.1-2.8V71.7
				C513.5,70,513,68.6,510.9,68.6z M503,122.4c0,1.7-1.1,3.3-2.8,3.4c0,0-3.2,0.5-5.8,0.5c-6.1,0-10.5-5.1-10.5-11v-10
				c0-5.8,4.3-10.9,10.3-10.9c3.8,0,8.8,1.8,8.8,7.8V122.4z"/>
			<path fill="#FFFFFF" d="M550.2,84.7c-2,0-4.1,0.4-5.9,0.9c-2,0.6-2.5-0.7-2.5-2V71.7c0-2.2-0.8-3.1-3-3.1h-5c-2,0-2.6,1.4-2.6,3
				v60.2c0,1.6,1.3,2.7,3.1,2.8c0,0,11.9,1.3,16.6,1.3c11.4,0,20.7-9.3,20.7-20.6v-10C571.6,93.9,561.8,84.7,550.2,84.7z
				 M560.9,115.3c0,5.9-4.5,11-10.6,11c-2.5,0-5.8-0.5-5.8-0.5c-1.7-0.1-2.8-1.7-2.8-3.4v-20.3c0-5.9,5.1-7.8,8.8-7.8
				c6,0,10.3,5.1,10.3,10.9V115.3z"/>
			<path fill="#FFFFFF" d="M602.5,84.7c-11.7,0-21.4,9.2-21.4,20.7v10c0,11.2,9.2,20.6,20.7,20.6c11.7,0,21.4-9.2,21.4-20.7v-10
				C623.2,94.1,613.9,84.7,602.5,84.7z M612.7,115.4c0,5.8-4.4,10.9-10.4,10.9c-6,0-10.5-5.1-10.5-11v-10c0-5.8,4.3-10.9,10.2-10.9
				c6,0,10.6,5.1,10.6,11V115.4z"/>
			<path fill="#FFFFFF" d="M674.8,131.4l-14.7-21.6c-1.2-1.8-1.3-3.9-0.1-5.7l10.7-15.5c1.2-1.8,0.4-3.4-1.5-3.4h-6.6
				c-1.6,0-2,0.5-3.6,2.9l-5,7.3c-1.1,1.7-2.3,1.6-3.3,0.1l-5-7.4c-1.3-1.9-2.4-2.9-3.7-2.9h-6.8c-1.9,0-2.5,1.7-1.4,3.4l10.9,15.8
				c1.1,1.6,1.2,3-0.1,4.8l-15.5,22.1c-1.1,1.7-0.3,3.3,1.6,3.3h6.2c1.8,0,2.5-0.8,4-2.9l9.3-14c1.1-1.7,2.6-1.5,3.6,0l9,14
				c1.4,2.3,2.3,2.9,3.4,2.9h6.9C675.4,134.7,676,133.1,674.8,131.4z"/>
			<path fill="#FFFFFF" d="M643,73c0.3,0.1,0.7,0,0.8-0.3c0.1-0.3,0-0.7-0.3-0.8C608.5,54,570.8,44.9,531.3,44.9
				c-39.5,0-77.2,9-112.1,26.9c-0.3,0.2-0.4,0.5-0.3,0.8c0.1,0.3,0.5,0.4,0.8,0.3c35.8-12.6,73.4-19,111.6-19
				C569.6,54,607.1,60.4,643,73z"/>
			<path fill="#FFFFFF" d="M411.9,84.6c-5.2,0-10.4,1.8-14.7,4.7v-2.3c0-1.6-1.3-2.8-3.2-2.8h-4.4c-1.9,0-3,1.6-3,2.9v21.1v4V132
				c0,1.3,1.2,2.9,3,2.9h4.4c1.9,0,3.2-1.2,3.2-2.8v-19.7v-6.1c0-6.5,8.2-11.9,14.1-11.9c2.3,0,3.4-1.5,3.4-2.4v-4.3
				C414.7,85.8,413.5,84.6,411.9,84.6z"/>
		</g>
	</g>
</g>
</svg>
